PathFileType	4	(X/Y/Z)	Patient4_TMGait_0pt4_03_left_24.trc.trc
DataRate	CameraRate	NumFrames	NumMarkers	Units	OrigDataRate	OrigDataStartFrame	OrigNumFrames
72.164948453608	72.164948453608	4	33	mm	72.164948453608	71	       141
Frame#	Time	Sacral			L.Shoulder			Chest			R.Shoulder			Neck			R.ASIS			L.ASIS			R.Thigh.Superior			R.Thigh.Lateral			R.Thigh.Inferior			R.Patella			L.Thigh.Superior			L.Thigh.Lateral			L.Thigh.Inferior			L.Patella			L.Shank.Superior			L.Shank.Lateral			L.Shank.Inferior			R.Shank.Superior			R.Shank.Lateral			R.Shank.Inferior			R.Heel			R.Midfoot.Superior			R.Midfoot.Lateral			R.Toe			L.Heel			L.Midfoot.Lateral			L.Midfoot.Superior			L.Toe			L.Elbow			L.Wrist			R.Elbow			R.Wrist			
		X1	Y1	Z1	X2	Y2	Z2	X3	Y3	Z3	X4	Y4	Z4	X5	Y5	Z5	X6	Y6	Z6	X7	Y7	Z7	X8	Y8	Z8	X9	Y9	Z9	X10	Y10	Z10	X11	Y11	Z11	X12	Y12	Z12	X13	Y13	Z13	X14	Y14	Z14	X15	Y15	Z15	X16	Y16	Z16	X17	Y17	Z17	X18	Y18	Z18	X19	Y19	Z19	X20	Y20	Z20	X21	Y21	Z21	X22	Y22	Z22	X23	Y23	Z23	X24	Y24	Z24	X25	Y25	Z25	X26	Y26	Z26	X27	Y27	Z27	X28	Y28	Z28	X29	Y29	Z29	X30	Y30	Z30	X31	Y31	Z31	X32	Y32	Z32	X33	Y33	Z33	

71	32.440000000000	821.908833758835	1010.643111310721	407.806711024136	1044.946032486207	1430.511457699895	238.858807629635	1118.039861923663	1364.743238115989	415.717132448426	1009.805330480357	1443.663696224505	572.876275835881	1000.605918923299	1496.625878359078	391.386483383609	1033.837980813195	950.011233917414	557.379171879740	1055.301019332282	958.070487756826	282.517409166490	1096.274299681100	762.490472189989	540.181379470828	1036.961846795556	647.853489737021	609.673136451274	1124.976861470244	601.269554495328	533.699954501587	1151.571302899750	524.298788101174	550.162003780385	1067.005978717927	734.761776612456	318.955613846031	966.558663586826	632.133345164263	244.451242272238	1028.308381179309	544.215800044856	315.950637642300	1015.954099577654	476.230878415664	323.288968995802	983.002499970595	408.413556454574	312.274511854118	883.264405332295	304.124123875278	260.379240285805	919.430489275712	187.794626020378	330.756320761957	1140.839441359446	439.739227554771	562.984703392132	1094.761118118882	324.140452844612	628.318724521840	1171.406068566990	242.044104988615	579.135371941237	1093.103866549237	49.567383847315	552.322540391012	1252.034995633637	129.956246000661	592.684010456328	1178.016511800649	50.255252936906	625.569659052395	1378.793817844703	99.167241597500	617.315811682849	780.220056439527	39.353278118559	374.472649004031	850.359247440073	35.350550042246	290.972914685195	935.674201279267	95.346136270536	316.038205905143	1062.424921440046	40.351916821382	280.020994544617	1079.173873252941	1096.988353442220	87.994898941450	1322.372500404539	1002.673827220521	90.998913817884	886.439540480152	1116.496665456774	679.900630136617	909.682252779417	855.216942585481	691.638160655079	
72	32.453857142857	822.826298467515	1009.399605768907	409.776526603144	1044.588691256464	1430.015752207169	241.325485383253	1117.927733778555	1364.126087034888	418.024019692681	1009.509681586486	1442.516593953337	575.339982148206	1000.102230804740	1495.787035770025	393.900945446871	1034.913385328709	948.808364699143	559.192929638563	1056.100866303287	957.400422265066	284.278949378480	1096.496556973173	760.517489473767	541.845995948149	1035.642866225749	645.488810422204	609.778024508946	1123.823099132025	599.270965642649	534.027332893053	1149.353312513948	522.283007391443	549.636121568017	1066.631493486864	733.530334642760	320.343887985238	965.492554310794	631.482397399215	245.564188627274	1026.636159070739	543.087435426901	316.933418828181	1013.885227346498	474.929007017323	324.032953530841	980.245129786913	407.356726793728	312.989653737742	879.481412266547	304.025632220983	260.908930209028	914.647221639600	187.226295635377	330.986530766871	1138.486601240300	437.148779243996	562.153523925786	1091.367942341868	321.556489875787	626.333283594938	1167.740860993194	239.457234483681	577.087300505546	1088.686399157673	48.237662465476	548.797167229559	1247.690371889177	126.642948907689	589.754475786066	1173.011763365759	48.291030696740	622.548844745545	1373.986007151242	95.011479215735	615.325028704782	774.615728789422	39.228868043891	374.477080200935	844.748191781103	35.275176605208	290.982750433174	930.048330260414	95.287370183307	316.103144593745	1056.791747801733	40.305599938680	280.013484455555	1081.760838883011	1096.964718396239	90.305832146269	1325.391083123089	1003.804586068506	93.972403986254	888.100047327882	1114.407787014108	681.941583741567	914.390840525774	853.457815613000	693.907157665780	
73	32.467714285714	823.902555218984	1007.982329892579	412.070391885882	1044.009974758902	1429.483356598543	244.019927810859	1117.759012762198	1363.508961421227	420.503245754918	1009.196356440693	1441.265003769126	578.060303133580	999.447208564841	1494.865012784189	396.669252572768	1036.363969713842	947.530967531893	561.119253083210	1056.953285513271	956.692127390030	286.160603978004	1097.732491276039	758.883982178273	543.270180258565	1035.512373102757	643.218687598082	609.568419424112	1123.951426479338	597.570462719294	534.139826535240	1148.197554892796	520.015102834046	548.861971442807	1066.531211998814	732.248717243023	321.684822621120	964.663500172779	630.700661474441	246.840189810330	1025.424628265484	541.855639674383	317.960964643786	1012.370873024334	473.418412607334	324.801209181715	977.854006126919	406.142686102254	313.771707941537	875.888265178449	303.921893240009	261.552818764071	909.944938854614	186.587356532257	331.253564103384	1136.452851423675	434.045141783930	560.966812454135	1087.272480961729	319.004054940367	624.144026340127	1162.239665450908	236.155852945538	574.665110797465	1080.332512527999	47.231475226690	545.356767760614	1240.140792588047	122.313168166289	586.448085858780	1164.157745929219	46.185568790158	619.512205786171	1365.703974448485	88.758947651692	612.835538162856	768.990991626703	39.081963577032	374.489272876694	839.130824996450	35.183671141553	291.007728239570	924.423086707797	95.224295577525	316.173912851092	1051.163329078781	40.240538749616	279.992649373640	1083.914354467923	1096.908861636633	92.781861777787	1327.776848699234	1004.299464814612	97.104139134689	890.247447220325	1112.066653686125	684.419479433167	920.270188337387	851.587828164903	696.687945599377	
74	32.481571428571	825.127024515156	1006.408656897060	414.673112564014	1043.225618578081	1428.913021053941	246.939014227659	1117.550997133556	1362.890932633033	423.153204733851	1008.892887814852	1439.913634803410	581.040791967033	998.669130027819	1493.869933479705	399.690186329959	1038.186260238216	946.201022453603	563.141042813070	1057.849110414450	955.953230544628	288.150948428589	1099.858159470895	757.470376111643	544.441331095282	1036.414400582823	641.048705950462	609.127622432033	1125.130521789971	596.071141564298	534.036857955504	1147.895993697851	517.506559865514	547.796607353231	1066.743867424090	730.936371000876	322.951475062929	964.114539870956	629.782046545703	248.283292018055	1024.744622032740	540.521991690013	319.027583880274	1011.494412295581	471.687273867916	325.578181512985	975.886984344889	404.769139488672	314.616500944898	872.527504970948	303.837951900411	262.320189952231	905.350518351874	185.896726180099	331.554771817954	1134.745875324515	430.551290177701	559.468790150050	1082.878305420541	316.484803730784	621.957011445114	1155.487932071072	232.306675289890	571.994510624290	1069.124605164052	46.364510965747	542.301376665120	1230.304912586995	117.374030172373	582.929051004034	1152.631799616077	44.034381577292	616.677153695945	1355.022473274844	81.209321213446	609.870502178859	763.347606211399	38.962386107438	374.504205741121	833.513715990162	35.095746209158	291.047285001817	918.820355338021	95.163875839460	316.240584710054	1045.550766839871	40.152307518300	279.953151949138	1085.589894277568	1096.791275172894	95.430829010189	1329.493494688617	1004.138580504133	100.346640089839	892.844062296232	1109.509155191355	687.313791827432	927.229706054387	849.654688041333	699.971425230844	
